<svg width="600" height="424" viewBox="0 0 600 424" fill="none" xmlns="http://www.w3.org/2000/svg">
<path d="M576.881 25.0328L597.519 374.424C597.975 382.142 592.088 388.769 584.369 389.225L163.033 414.113C146.277 415.103 142.287 391.143 158.459 386.649L216.986 370.383C224.25 368.364 229.119 361.55 228.674 354.024L210.519 46.6737C210.063 38.9552 215.951 32.3285 223.669 31.8725L562.079 11.8827C569.798 11.4268 576.425 17.3143 576.881 25.0328Z" fill="#FC4C00" stroke="black" stroke-width="2"/>
<path d="M599 10V370C599 374.971 594.971 379 590 379H115.953C105.163 379 103.51 363.473 114.059 361.202L223.315 337.678C228.382 336.587 232 332.107 232 326.924V10C232 5.02942 236.029 1 241 1H590C594.971 1 599 5.02945 599 10Z" fill="#D9D9D9" stroke="black" stroke-width="2"/>
</svg>
