<svg width="609" height="427" viewBox="0 0 609 427" fill="none" xmlns="http://www.w3.org/2000/svg">
<path d="M31.5212 411.389L10.8828 61.9978C10.4268 54.2793 16.3143 47.6526 24.0329 47.1966L445.369 22.3084C462.125 21.3187 466.115 45.2783 449.943 49.7729L391.415 66.0385C384.152 68.0572 379.283 74.8721 379.728 82.3977L397.883 389.748C398.339 397.466 392.451 404.093 384.733 404.549L46.3224 424.539C38.6039 424.995 31.9771 419.107 31.5212 411.389Z" fill="#FC4C00" stroke="black" stroke-width="2"/>
<path d="M1 370V10C1 5.02944 5.02943 1 9.99999 1H484.047C494.837 1 496.49 16.5271 485.941 18.7984L376.685 42.3225C371.618 43.4134 368 47.8932 368 53.0761V370C368 374.971 363.971 379 359 379H10C5.02944 379 1 374.971 1 370Z" fill="#D9D9D9" stroke="black" stroke-width="2"/>
</svg>
