<svg width="200" height="45" viewBox="0 0 200 45" fill="none" xmlns="http://www.w3.org/2000/svg">
<path d="M0 30.5718V39.3542H6.89655V19.2802L0 30.5718Z" fill="#FC4C00"/>
<path d="M1.88088 0.460784L18.8088 28.0626L30.094 9.24316V39.3542H36.9906V0.460784H28.2132L18.8088 15.5163L9.40439 0.460784H1.88088Z" fill="#FC4C00"/>
<path d="M45.768 0.460784V39.3542H54.5455L71.4734 11.1251V39.3542H78.3699V0.460784H70.2194L52.6646 29.3172V0.460784H45.768Z" fill="#FC4C00"/>
<path d="M129.154 0.460784V39.3542H137.931L154.859 11.1251L154.232 39.3542H161.129V0.460784H152.978L136.05 29.3172V0.460784H129.154Z" fill="#FC4C00"/>
<path d="M200 30.5718L194.357 26.8079L193.103 29.317C190.094 33.8337 184.744 33.7082 182.445 33.0809C176.426 31.5753 173.668 26.1805 173.041 23.6712C170.031 16.6453 175.549 10.2885 178.683 7.98837C187.712 2.46802 192.894 9.03389 194.357 13.0069L200 9.87053L198.746 7.98837L196.238 5.25987L193.73 3.37793C191.85 1.49599 189.028 0.86846 186.207 0.241147C181.693 -0.762554 174.922 1.49553 171.787 4.63222C168.025 7.76879 163.172 17.8061 166.771 26.8079C169.279 33.0811 174.295 37.4723 182.445 39.3542C190.596 40.6088 197.492 34.3357 200 30.5718Z" fill="#FC4C00"/>
<path fill-rule="evenodd" clip-rule="evenodd" d="M82.7586 45V33.0811H87.1473C89.6552 31.8264 92.79 11.1251 91.5361 0.460784H118.495V33.0811H124.138V45H117.241V39.3542H90.2821V45H82.7586ZM97.8056 6.73391C98.4326 13.6344 95.9248 28.0626 94.0439 33.0811H111.599V6.73391H97.8056Z" fill="#FC4C00"/>
</svg>
