<svg width="26" height="16" viewBox="0 0 26 16" fill="none" xmlns="http://www.w3.org/2000/svg">
<path fill-rule="evenodd" clip-rule="evenodd" d="M1 0C0.447715 0 0 0.447715 0 1C0 1.55228 0.447716 2 1 2H25C25.5523 2 26 1.55228 26 1C26 0.447715 25.5523 0 25 0H1ZM0 8C0 7.44772 0.447715 7 1 7H25C25.5523 7 26 7.44772 26 8C26 8.55229 25.5523 9 25 9H1C0.447716 9 0 8.55229 0 8ZM0 15C0 14.4477 0.447715 14 1 14H25C25.5523 14 26 14.4477 26 15C26 15.5523 25.5523 16 25 16H1C0.447716 16 0 15.5523 0 15Z" fill="#2C2C2C"/>
</svg>
